<?xml version="1.0" encoding="utf-8"?>
<!-- Generator: Adobe Illustrator 24.3.0, SVG Export Plug-In . SVG Version: 6.00 Build 0)  -->
<svg version="1.1" id="Layer_1" xmlns="http://www.w3.org/2000/svg" xmlns:xlink="http://www.w3.org/1999/xlink" x="0px" y="0px"
	 viewBox="0 0 345.1 293" style="enable-background:new 0 0 345.1 293;" xml:space="preserve">
<style type="text/css">
	.st0{fill:url(#SVGID_1_);}
	.st1{fill:url(#SVGID_2_);}
	.st2{fill:url(#SVGID_3_);}
	.st3{fill:url(#SVGID_4_);}
</style>
<g id="Layer_2_1_">
	<g id="text">
		<linearGradient id="SVGID_1_" gradientUnits="userSpaceOnUse" x1="8.6733" y1="80.6313" x2="322.9103" y2="292.5869">
			<stop  offset="0" style="stop-color:#1D4ED8"/>
			<stop  offset="1" style="stop-color:#172554"/>
		</linearGradient>
		<polygon class="st0" points="345.1,259.6 283.2,293 225.9,252.8 225.9,124.6 188.2,89.5 188.2,250.6 115.2,293 115.2,122.8 
			76,89.2 76,252.5 0,293 0,93.5 46,63.5 31.1,50.8 97.7,0 149.3,48.3 212.7,0 302,81.8 302,229.6 		"/>
		<linearGradient id="SVGID_2_" gradientUnits="userSpaceOnUse" x1="0.4682" y1="96.2384" x2="188.16" y2="222.8381">
			<stop  offset="0" style="stop-color:#1D4ED8"/>
			<stop  offset="1" style="stop-color:#172554"/>
		</linearGradient>
		<polygon class="st1" points="46,63.5 76.3,43 76,89.2 115.2,122.8 115.2,293 157.3,268.6 157.3,101.2 68.2,22.5 31.1,50.8 		"/>
		<linearGradient id="SVGID_3_" gradientUnits="userSpaceOnUse" x1="-36.6878" y1="147.8818" x2="69.513" y2="219.5152">
			<stop  offset="0" style="stop-color:#1D4ED8"/>
			<stop  offset="1" style="stop-color:#172554"/>
		</linearGradient>
		<polygon class="st2" points="31.1,73.2 31.1,276.5 0,293 0,93.5 		"/>
		<linearGradient id="SVGID_4_" gradientUnits="userSpaceOnUse" x1="125.6254" y1="83.4087" x2="345.9739" y2="232.0357">
			<stop  offset="0" style="stop-color:#1D4ED8"/>
			<stop  offset="1" style="stop-color:#172554"/>
		</linearGradient>
		<polygon class="st3" points="149.3,48.3 188.2,89.5 225.9,124.6 225.9,252.8 283.2,293 317.2,274.7 267,235.8 267,102.6 
			185.7,20.6 		"/>
	</g>
</g>
</svg>
