<svg width="32" height="29" viewBox="0 0 32 29" fill="none" xmlns="http://www.w3.org/2000/svg">
<g filter="url(#filter0_d_405_1443)">
<path d="M26.5 10.5H5.5C4.67158 10.5 4 11.1716 4 12C4 12.8284 4.67158 13.5 5.5 13.5H26.5C27.3284 13.5 28 12.8284 28 12C28 11.1716 27.3284 10.5 26.5 10.5Z" fill="white"/>
<path d="M5.5 6.50001H26.5C27.3284 6.50001 28 5.82843 28 5C28 4.17158 27.3284 3.5 26.5 3.5H5.5C4.67158 3.5 4 4.17158 4 5C4 5.82843 4.67158 6.50001 5.5 6.50001Z" fill="white"/>
<path d="M26.5 17.5H5.5C4.67158 17.5 4 18.1716 4 19C4 19.8284 4.67158 20.5 5.5 20.5H26.5C27.3284 20.5 28 19.8284 28 19C28 18.1716 27.3284 17.5 26.5 17.5Z" fill="white"/>
</g>
<defs>
<filter id="filter0_d_405_1443" x="0" y="0" width="32" height="32" filterUnits="userSpaceOnUse" color-interpolation-filters="sRGB">
<feFlood flood-opacity="0" result="BackgroundImageFix"/>
<feColorMatrix in="SourceAlpha" type="matrix" values="0 0 0 0 0 0 0 0 0 0 0 0 0 0 0 0 0 0 127 0" result="hardAlpha"/>
<feOffset dy="4"/>
<feGaussianBlur stdDeviation="2"/>
<feComposite in2="hardAlpha" operator="out"/>
<feColorMatrix type="matrix" values="0 0 0 0 0 0 0 0 0 0 0 0 0 0 0 0 0 0 0.25 0"/>
<feBlend mode="normal" in2="BackgroundImageFix" result="effect1_dropShadow_405_1443"/>
<feBlend mode="normal" in="SourceGraphic" in2="effect1_dropShadow_405_1443" result="shape"/>
</filter>
</defs>
</svg>
